HIERARCHY
ROOT Hips
{
	OFFSET -0.001795 -0.223333 0.028219
	CHANNELS 6 Xposition Yposition Zposition Zrotation Yrotation Xrotation 
	JOINT LeftUpLeg
	{
		OFFSET 0.069520 -0.091406 -0.006815
		CHANNELS 3 Zrotation Yrotation Xrotation
		JOINT LeftLeg
		{
			OFFSET 0.034277 -0.375199 -0.004496
			CHANNELS 3 Zrotation Yrotation Xrotation
			JOINT LeftFoot
			{
				OFFSET -0.013596 -0.397961 -0.043693
				CHANNELS 3 Zrotation Yrotation Xrotation
				JOINT LeftToe
				{
					OFFSET 0.026358 -0.055791 0.119288
					CHANNELS 3 Zrotation Yrotation Xrotation
					End Site
					{
						OFFSET 0.000000 0.000000 0.000000
					}
				}
			}
		}
	}
	JOINT RightUpLeg
	{
		OFFSET -0.067670 -0.090522 -0.004320
		CHANNELS 3 Zrotation Yrotation Xrotation
		JOINT RightLeg
		{
			OFFSET -0.038290 -0.382569 -0.008850
			CHANNELS 3 Zrotation Yrotation Xrotation
			JOINT RightFoot
			{
				OFFSET 0.015774 -0.398415 -0.042312
				CHANNELS 3 Zrotation Yrotation Xrotation
				JOINT RightToe
				{
					OFFSET -0.025372 -0.048144 0.123348
					CHANNELS 3 Zrotation Yrotation Xrotation
					End Site
					{
						OFFSET 0.000000 0.000000 0.000000
					}
				}
			}
		}
	}
	JOINT Spine
	{
		OFFSET -0.002533 0.108963 -0.026696
		CHANNELS 3 Zrotation Yrotation Xrotation
		JOINT Spine1
		{
			OFFSET 0.005487 0.135180 0.001092
			CHANNELS 3 Zrotation Yrotation Xrotation
			JOINT Spine2
			{
				OFFSET 0.001457 0.052922 0.025425
				CHANNELS 3 Zrotation Yrotation Xrotation
				JOINT Neck
				{
					OFFSET -0.002778 0.213870 -0.042857
					CHANNELS 3 Zrotation Yrotation Xrotation
					JOINT Head
					{
						OFFSET 0.005152 0.064970 0.051349
						CHANNELS 3 Zrotation Yrotation Xrotation
						End Site
						{
							OFFSET 0.000000 0.000000 0.000000
						}
					}
				}
				JOINT LeftShoulder
				{
					OFFSET 0.078845 0.121749 -0.034090
					CHANNELS 3 Zrotation Yrotation Xrotation
					JOINT LeftArm
					{
						OFFSET 0.090977 0.030469 -0.008868
						CHANNELS 3 Zrotation Yrotation Xrotation
						JOINT LeftForeArm
						{
							OFFSET 0.259612 -0.012772 -0.027456
							CHANNELS 3 Zrotation Yrotation Xrotation
							JOINT LeftHand
							{
								OFFSET 0.249234 0.008986 -0.001171
								CHANNELS 3 Zrotation Yrotation Xrotation
								End Site
								{
									OFFSET 0.000000 0.000000 0.000000
								}
							}
						}
					}
				}
				JOINT RightShoulder
				{
					OFFSET -0.081759 0.118833 -0.038615
					CHANNELS 3 Zrotation Yrotation Xrotation
					JOINT RightArm
					{
						OFFSET -0.096012 0.032551 -0.009143
						CHANNELS 3 Zrotation Yrotation Xrotation
						JOINT RightForeArm
						{
							OFFSET -0.253742 -0.013329 -0.021401
							CHANNELS 3 Zrotation Yrotation Xrotation
							JOINT RightHand
							{
								OFFSET -0.255298 0.007772 -0.005559
								CHANNELS 3 Zrotation Yrotation Xrotation
								End Site
								{
									OFFSET 0.000000 0.000000 0.000000
								}
							}
						}
					}
				}
			}
		}
	}
}
MOTION
Frames: 10
Frame Time: 0.050000
-0.810530 0.896866 1.380803 -5.986164 38.571566 4.382896 17.392466 -4.142816 -36.838072 -10.382653 -2.131625 36.403243 4.439982 10.161001 0.610519 0.000000 0.000000 0.000000 -3.118659 -2.619565 -36.041901 16.589359 -11.263132 28.923191 -13.269087 -25.352224 11.632941 0.000000 0.000000 0.000000 -18.617083 -5.272988 61.601909 3.486699 0.596765 -25.780830 20.491546 31.740574 36.432917 1.473156 7.764770 -29.405253 0.000000 0.000000 0.000000 -21.930330 -15.318934 -8.830911 -44.643589 -12.474964 1.154059 -13.712459 -46.321023 1.963197 0.000000 0.000000 0.000000 -12.218016 37.369517 10.005875 29.424334 62.833836 21.163200 -23.210793 -1.691247 0.399193 0.000000 0.000000 0.000000 
-0.808263 0.893453 1.373506 -5.606054 38.178057 3.605905 17.716523 -3.852078 -35.638300 -11.655952 -1.643437 35.935136 4.461776 9.921583 0.264384 0.000000 0.000000 0.000000 -3.101451 -2.465036 -35.515848 15.607579 -10.799046 29.310863 -12.804226 -24.765736 10.994642 0.000000 0.000000 0.000000 -18.051230 -5.463813 61.680937 4.105489 0.469794 -25.714298 19.537525 31.601397 35.617816 2.336689 7.360427 -29.708816 0.000000 0.000000 0.000000 -21.747550 -15.634416 -8.221138 -44.065201 -12.311289 1.060905 -14.684420 -47.015689 2.447414 0.000000 0.000000 0.000000 -10.505388 37.300423 10.917252 31.001440 61.010157 20.622220 -22.911014 0.348908 0.049720 0.000000 0.000000 0.000000 
-0.804982 0.889296 1.364614 -5.761229 37.403616 2.831536 18.346509 -3.509217 -34.536905 -12.553804 -1.243245 35.637143 5.051184 10.648290 -0.495441 0.000000 0.000000 0.000000 -2.853104 -2.177260 -35.100143 14.876403 -10.175701 29.049677 -12.914105 -25.247644 10.362527 0.000000 0.000000 0.000000 -16.815393 -5.612231 60.435522 4.301133 0.398541 -25.008413 18.548850 30.742224 34.947360 1.313718 7.733408 -29.866628 0.000000 0.000000 0.000000 -23.047867 -16.021669 -8.343768 -43.620261 -12.201007 1.307792 -14.732660 -46.006759 2.686906 0.000000 0.000000 0.000000 -9.264014 36.847327 11.325918 34.812128 58.621756 21.155304 -23.108352 4.359344 -0.669692 0.000000 0.000000 0.000000 
-0.801070 0.887022 1.353529 -5.203581 36.886770 2.400335 17.795701 -3.396385 -33.785206 -12.475983 -1.255903 35.672093 5.063038 10.851276 -0.093781 0.000000 0.000000 0.000000 -3.428064 -2.204315 -34.375954 13.464463 -9.519851 29.636748 -12.486835 -24.734007 9.701229 0.000000 0.000000 0.000000 -16.091887 -5.766256 60.164312 4.732931 0.293228 -24.810917 16.980793 29.453636 33.519631 0.270839 8.022042 -31.793465 0.000000 0.000000 0.000000 -24.515987 -16.255841 -8.110608 -42.431188 -10.827694 1.063883 -16.997990 -46.365076 4.062136 0.000000 0.000000 0.000000 -6.780619 35.637234 12.114921 38.020850 55.938527 20.693662 -22.193764 9.537223 -1.534404 0.000000 0.000000 0.000000 
-0.796594 0.884372 1.340192 -5.252052 35.838483 1.565592 17.889054 -3.144200 -32.957382 -12.395850 -1.199587 35.835589 4.775286 9.887795 -0.665812 0.000000 0.000000 0.000000 -3.133400 -1.892239 -34.000304 12.424995 -8.996976 30.242164 -12.324428 -24.855158 8.756721 0.000000 0.000000 0.000000 -15.383327 -5.633482 59.128200 5.254104 0.102017 -24.241700 15.780773 27.887452 32.777851 -0.309666 8.044530 -33.590115 0.000000 0.000000 0.000000 -24.745104 -16.053498 -7.520158 -42.461204 -10.272288 0.735895 -17.530614 -45.647474 4.467541 0.000000 0.000000 0.000000 -4.473433 34.544599 12.760374 40.523494 52.887044 19.589979 -21.630127 14.006561 -2.196950 0.000000 0.000000 0.000000 
-0.791251 0.882722 1.324685 -5.084798 34.528007 1.137261 18.042923 -2.889742 -32.304966 -12.730828 -0.971245 36.135560 4.652154 9.656074 -0.611600 0.000000 0.000000 0.000000 -3.428327 -1.821944 -33.926507 11.123926 -8.211157 30.724705 -11.494423 -23.324927 8.739661 0.000000 0.000000 0.000000 -14.685947 -5.418927 58.205135 5.391100 0.019234 -23.931467 14.178150 25.886283 31.694465 -1.370985 8.152492 -35.933713 0.000000 0.000000 0.000000 -24.961670 -15.790011 -6.659068 -41.721706 -10.847257 0.702202 -17.265730 -44.386240 4.644008 0.000000 0.000000 0.000000 -1.339472 32.786145 13.545083 41.004513 49.651777 17.076410 -20.206576 18.904963 -2.690206 0.000000 0.000000 0.000000 
-0.784014 0.880764 1.307577 -5.004509 33.039752 0.262137 17.630552 -2.626786 -31.316733 -12.295248 -0.950251 36.091478 4.452799 8.424925 -1.894319 0.000000 0.000000 0.000000 -3.450850 -1.510812 -33.144428 10.154928 -7.393753 30.372008 -10.828010 -22.350468 8.109665 0.000000 0.000000 0.000000 -14.013783 -5.179119 57.390343 5.250619 -0.029464 -23.291349 12.578675 23.882585 30.732128 -1.605113 7.893034 -36.986550 0.000000 0.000000 0.000000 -24.872729 -15.779336 -5.532963 -41.428510 -11.958931 0.791430 -15.135047 -43.332061 4.038063 0.000000 0.000000 0.000000 0.897124 31.684564 14.019135 40.643358 47.038401 14.780428 -18.570492 20.774909 -2.630655 0.000000 0.000000 0.000000 
-0.773370 0.881296 1.290265 -4.890261 30.607961 -0.230599 17.356064 -2.241094 -30.033748 -12.377311 -0.637533 36.242616 4.617497 8.992966 -1.543691 0.000000 0.000000 0.000000 -3.763361 -1.261007 -32.812183 9.046038 -6.432696 30.265227 -9.539076 -19.934531 8.392608 0.000000 0.000000 0.000000 -13.442602 -4.444489 55.701641 5.679728 -0.236818 -22.531455 11.224042 22.171186 30.410711 -1.840453 7.625490 -39.648001 0.000000 0.000000 0.000000 -24.714456 -15.771313 -4.538245 -41.305689 -13.425649 0.965236 -12.368805 -42.229237 3.186597 0.000000 0.000000 0.000000 3.051867 30.812588 14.530860 38.692126 44.125722 11.863009 -16.900571 22.018223 -2.425173 0.000000 0.000000 0.000000 
-0.758365 0.883347 1.274573 -4.550784 28.744736 -0.997372 16.151976 -2.000139 -28.511356 -11.944245 -0.530622 35.720596 4.639609 9.036984 -1.435868 0.000000 0.000000 0.000000 -4.381990 -1.065577 -31.418355 7.845250 -5.372691 29.257609 -8.799818 -18.535382 8.970626 0.000000 0.000000 0.000000 -12.501605 -4.131056 54.345679 5.610689 -0.296087 -21.954363 10.287326 20.176363 29.744440 -1.708203 7.203444 -40.324916 0.000000 0.000000 0.000000 -25.332485 -15.749788 -3.736468 -40.739248 -14.351994 1.101818 -10.803382 -41.108277 2.877735 0.000000 0.000000 0.000000 5.214686 29.790200 14.906484 38.084475 40.778024 9.516176 -15.408493 21.538902 -2.063403 0.000000 0.000000 0.000000 
-0.738824 0.887604 1.261879 -3.973757 26.813185 -1.271090 14.710208 -1.757577 -26.237643 -11.186856 -0.420783 33.999484 4.648872 9.155146 -1.073976 0.000000 0.000000 0.000000 -5.229436 -0.998515 -30.311670 6.503576 -4.229686 27.862164 -7.651111 -16.314920 9.917803 0.000000 0.000000 0.000000 -12.012673 -3.421168 51.870297 7.232207 -0.849077 -21.053808 9.136771 18.961501 29.223890 -1.289578 6.792240 -41.372059 0.000000 0.000000 0.000000 -25.689930 -15.910350 -3.109249 -40.920777 -14.549886 1.042269 -11.010834 -40.756084 3.120184 0.000000 0.000000 0.000000 7.651164 28.337778 15.324464 37.167506 36.754150 7.026942 -12.704033 21.272328 -1.572923 0.000000 0.000000 0.000000 
